<svg width="214" height="25" viewBox="0 0 214 25" fill="none" xmlns="http://www.w3.org/2000/svg">
<path d="M9.868 19.26C8.48133 19.26 7.19 19.0347 5.994 18.584C4.81533 18.116 3.784 17.466 2.9 16.634C2.03333 15.7847 1.35733 14.788 0.872 13.644C0.386667 12.5 0.144 11.252 0.144 9.9C0.144 8.548 0.386667 7.3 0.872 6.156C1.35733 5.012 2.042 4.024 2.926 3.192C3.81 2.34267 4.84133 1.69267 6.02 1.242C7.19867 0.773999 8.49 0.539999 9.894 0.539999C11.3847 0.539999 12.7453 0.799999 13.976 1.32C15.2067 1.82267 16.2467 2.57667 17.096 3.582L14.912 5.636C14.2533 4.92533 13.5167 4.39667 12.702 4.05C11.8873 3.686 11.0033 3.504 10.05 3.504C9.09667 3.504 8.22133 3.66 7.424 3.972C6.644 4.284 5.95933 4.726 5.37 5.298C4.798 5.87 4.34733 6.546 4.018 7.326C3.706 8.106 3.55 8.964 3.55 9.9C3.55 10.836 3.706 11.694 4.018 12.474C4.34733 13.254 4.798 13.93 5.37 14.502C5.95933 15.074 6.644 15.516 7.424 15.828C8.22133 16.14 9.09667 16.296 10.05 16.296C11.0033 16.296 11.8873 16.1227 12.702 15.776C13.5167 15.412 14.2533 14.866 14.912 14.138L17.096 16.218C16.2467 17.206 15.2067 17.96 13.976 18.48C12.7453 19 11.376 19.26 9.868 19.26ZM25.7294 19.182C24.3081 19.182 23.0428 18.8787 21.9334 18.272C20.8241 17.648 19.9488 16.7987 19.3074 15.724C18.6661 14.6493 18.3454 13.4273 18.3454 12.058C18.3454 10.6713 18.6661 9.44933 19.3074 8.392C19.9488 7.31733 20.8241 6.47667 21.9334 5.87C23.0428 5.26333 24.3081 4.96 25.7294 4.96C27.1681 4.96 28.4421 5.26333 29.5514 5.87C30.6781 6.47667 31.5534 7.30867 32.1774 8.366C32.8188 9.42333 33.1394 10.654 33.1394 12.058C33.1394 13.4273 32.8188 14.6493 32.1774 15.724C31.5534 16.7987 30.6781 17.648 29.5514 18.272C28.4421 18.8787 27.1681 19.182 25.7294 19.182ZM25.7294 16.4C26.5268 16.4 27.2374 16.2267 27.8614 15.88C28.4854 15.5333 28.9708 15.0307 29.3174 14.372C29.6814 13.7133 29.8634 12.942 29.8634 12.058C29.8634 11.1567 29.6814 10.3853 29.3174 9.744C28.9708 9.08533 28.4854 8.58267 27.8614 8.236C27.2374 7.88933 26.5354 7.716 25.7554 7.716C24.9581 7.716 24.2474 7.88933 23.6234 8.236C23.0168 8.58267 22.5314 9.08533 22.1674 9.744C21.8034 10.3853 21.6214 11.1567 21.6214 12.058C21.6214 12.942 21.8034 13.7133 22.1674 14.372C22.5314 15.0307 23.0168 15.5333 23.6234 15.88C24.2474 16.2267 24.9494 16.4 25.7294 16.4ZM53.7712 4.96C54.8806 4.96 55.8599 5.17667 56.7092 5.61C57.5759 6.04333 58.2519 6.71067 58.7372 7.612C59.2226 8.496 59.4652 9.64 59.4652 11.044V19H56.2152V11.46C56.2152 10.2293 55.9466 9.31067 55.4092 8.704C54.8719 8.09733 54.1006 7.794 53.0952 7.794C52.3846 7.794 51.7519 7.95 51.1972 8.262C50.6599 8.574 50.2352 9.03333 49.9232 9.64C49.6286 10.2467 49.4812 11.018 49.4812 11.954V19H46.2312V11.46C46.2312 10.2293 45.9626 9.31067 45.4252 8.704C44.8879 8.09733 44.1166 7.794 43.1112 7.794C42.4006 7.794 41.7679 7.95 41.2132 8.262C40.6759 8.574 40.2512 9.03333 39.9392 9.64C39.6446 10.2467 39.4972 11.018 39.4972 11.954V19H36.2472V5.116H39.3412V8.808L38.7952 7.716C39.2632 6.81467 39.9392 6.13 40.8232 5.662C41.7246 5.194 42.7472 4.96 43.8912 4.96C45.1912 4.96 46.3179 5.28067 47.2712 5.922C48.2419 6.56333 48.8832 7.534 49.1952 8.834L47.9212 8.392C48.3719 7.352 49.1172 6.52 50.1572 5.896C51.1972 5.272 52.4019 4.96 53.7712 4.96ZM71.3143 19.182C70.1877 19.182 69.1563 18.922 68.2203 18.402C67.3017 17.882 66.565 17.102 66.0103 16.062C65.473 15.0047 65.2043 13.67 65.2043 12.058C65.2043 10.4287 65.4643 9.094 65.9843 8.054C66.5217 7.014 67.2497 6.24267 68.1683 5.74C69.087 5.22 70.1357 4.96 71.3143 4.96C72.6837 4.96 73.8883 5.25467 74.9283 5.844C75.9857 6.43333 76.8177 7.25667 77.4243 8.314C78.0483 9.37133 78.3603 10.6193 78.3603 12.058C78.3603 13.4967 78.0483 14.7533 77.4243 15.828C76.8177 16.8853 75.9857 17.7087 74.9283 18.298C73.8883 18.8873 72.6837 19.182 71.3143 19.182ZM63.6183 24.044V5.116H66.7123V8.392L66.6083 12.084L66.8683 15.776V24.044H63.6183ZM70.9503 16.4C71.7303 16.4 72.4237 16.2267 73.0303 15.88C73.6543 15.5333 74.1483 15.0307 74.5123 14.372C74.8763 13.7133 75.0583 12.942 75.0583 12.058C75.0583 11.1567 74.8763 10.3853 74.5123 9.744C74.1483 9.08533 73.6543 8.58267 73.0303 8.236C72.4237 7.88933 71.7303 7.716 70.9503 7.716C70.1703 7.716 69.4683 7.88933 68.8443 8.236C68.2203 8.58267 67.7263 9.08533 67.3623 9.744C66.9983 10.3853 66.8163 11.1567 66.8163 12.058C66.8163 12.942 66.9983 13.7133 67.3623 14.372C67.7263 15.0307 68.2203 15.5333 68.8443 15.88C69.4683 16.2267 70.1703 16.4 70.9503 16.4ZM89.8188 19V16.192L89.6368 15.594V10.68C89.6368 9.72667 89.3508 8.99 88.7788 8.47C88.2068 7.93267 87.3401 7.664 86.1788 7.664C85.3988 7.664 84.6275 7.78533 83.8648 8.028C83.1195 8.27067 82.4868 8.60867 81.9668 9.042L80.6928 6.676C81.4381 6.104 82.3221 5.67933 83.3448 5.402C84.3848 5.10733 85.4595 4.96 86.5688 4.96C88.5795 4.96 90.1308 5.44533 91.2228 6.416C92.3321 7.36933 92.8868 8.85133 92.8868 10.862V19H89.8188ZM85.4508 19.182C84.4108 19.182 83.5008 19.0087 82.7208 18.662C81.9408 18.298 81.3341 17.804 80.9008 17.18C80.4848 16.5387 80.2768 15.8193 80.2768 15.022C80.2768 14.242 80.4588 13.54 80.8228 12.916C81.2041 12.292 81.8195 11.798 82.6688 11.434C83.5181 11.07 84.6448 10.888 86.0488 10.888H90.0788V13.046H86.2828C85.1735 13.046 84.4281 13.228 84.0468 13.592C83.6655 13.9387 83.4748 14.372 83.4748 14.892C83.4748 15.4813 83.7088 15.9493 84.1768 16.296C84.6448 16.6427 85.2948 16.816 86.1268 16.816C86.9241 16.816 87.6348 16.634 88.2588 16.27C88.9001 15.906 89.3595 15.3687 89.6368 14.658L90.1828 16.608C89.8708 17.4227 89.3075 18.0553 88.4928 18.506C87.6955 18.9567 86.6815 19.182 85.4508 19.182ZM104.936 4.96C106.045 4.96 107.033 5.17667 107.9 5.61C108.784 6.04333 109.477 6.71067 109.98 7.612C110.482 8.496 110.734 9.64 110.734 11.044V19H107.484V11.46C107.484 10.2293 107.189 9.31067 106.6 8.704C106.028 8.09733 105.222 7.794 104.182 7.794C103.419 7.794 102.743 7.95 102.154 8.262C101.564 8.574 101.105 9.042 100.776 9.666C100.464 10.2727 100.308 11.044 100.308 11.98V19H97.0578V5.116H100.152V8.86L99.6058 7.716C100.091 6.832 100.793 6.156 101.712 5.688C102.648 5.20267 103.722 4.96 104.936 4.96ZM115.747 24.226C115.071 24.226 114.395 24.1133 113.719 23.888C113.043 23.6627 112.479 23.3507 112.029 22.952L113.329 20.56C113.658 20.8547 114.031 21.0887 114.447 21.262C114.863 21.4353 115.287 21.522 115.721 21.522C116.31 21.522 116.787 21.3747 117.151 21.08C117.515 20.7853 117.853 20.2913 118.165 19.598L118.971 17.778L119.231 17.388L124.483 5.116H127.603L121.103 20.118C120.669 21.158 120.184 21.9813 119.647 22.588C119.127 23.1947 118.537 23.6193 117.879 23.862C117.237 24.1047 116.527 24.226 115.747 24.226ZM118.607 19.494L112.341 5.116H115.721L120.817 17.102L118.607 19.494Z" fill="white"/>
<path d="M135.789 19V0.799999H141.925V14.242H150.141V19H135.789ZM161.124 19.416C159.65 19.416 158.281 19.182 157.016 18.714C155.768 18.246 154.684 17.5873 153.766 16.738C152.847 15.8713 152.128 14.8573 151.608 13.696C151.105 12.5347 150.854 11.2693 150.854 9.9C150.854 8.51333 151.105 7.248 151.608 6.104C152.128 4.94267 152.847 3.93733 153.766 3.088C154.684 2.22133 155.768 1.554 157.016 1.086C158.281 0.618 159.65 0.383999 161.124 0.383999C162.614 0.383999 163.984 0.618 165.232 1.086C166.48 1.554 167.563 2.22133 168.482 3.088C169.4 3.93733 170.111 4.94267 170.614 6.104C171.134 7.248 171.394 8.51333 171.394 9.9C171.394 11.2693 171.134 12.5347 170.614 13.696C170.111 14.8573 169.4 15.8713 168.482 16.738C167.563 17.5873 166.48 18.246 165.232 18.714C163.984 19.182 162.614 19.416 161.124 19.416ZM161.124 14.45C161.696 14.45 162.224 14.346 162.71 14.138C163.212 13.93 163.646 13.6353 164.01 13.254C164.391 12.8553 164.686 12.3787 164.894 11.824C165.102 11.252 165.206 10.6107 165.206 9.9C165.206 9.18933 165.102 8.55667 164.894 8.002C164.686 7.43 164.391 6.95333 164.01 6.572C163.646 6.17333 163.212 5.87 162.71 5.662C162.224 5.454 161.696 5.35 161.124 5.35C160.552 5.35 160.014 5.454 159.512 5.662C159.026 5.87 158.593 6.17333 158.212 6.572C157.848 6.95333 157.562 7.43 157.354 8.002C157.146 8.55667 157.042 9.18933 157.042 9.9C157.042 10.6107 157.146 11.252 157.354 11.824C157.562 12.3787 157.848 12.8553 158.212 13.254C158.593 13.6353 159.026 13.93 159.512 14.138C160.014 14.346 160.552 14.45 161.124 14.45ZM183.059 19.416C181.585 19.416 180.225 19.1907 178.977 18.74C177.746 18.272 176.671 17.6133 175.753 16.764C174.851 15.9147 174.149 14.9093 173.647 13.748C173.144 12.5867 172.893 11.304 172.893 9.9C172.893 8.496 173.144 7.21333 173.647 6.052C174.149 4.89067 174.86 3.88533 175.779 3.036C176.697 2.18667 177.781 1.53667 179.029 1.086C180.294 0.618 181.681 0.383999 183.189 0.383999C184.991 0.383999 186.595 0.687333 187.999 1.294C189.42 1.90067 190.59 2.76733 191.509 3.894L187.583 7.352C187.011 6.69333 186.387 6.19933 185.711 5.87C185.052 5.52333 184.315 5.35 183.501 5.35C182.825 5.35 182.209 5.454 181.655 5.662C181.117 5.87 180.658 6.17333 180.277 6.572C179.895 6.97067 179.601 7.44733 179.393 8.002C179.185 8.55667 179.081 9.18933 179.081 9.9C179.081 10.576 179.185 11.2 179.393 11.772C179.601 12.3267 179.895 12.8033 180.277 13.202C180.658 13.6007 181.109 13.9127 181.629 14.138C182.166 14.346 182.764 14.45 183.423 14.45C184.116 14.45 184.792 14.3373 185.451 14.112C186.109 13.8693 186.811 13.462 187.557 12.89L190.989 17.102C189.879 17.8473 188.614 18.4193 187.193 18.818C185.771 19.2167 184.393 19.416 183.059 19.416ZM185.659 16.322V9.406H190.989V17.102L185.659 16.322ZM203.145 19.416C201.672 19.416 200.302 19.182 199.037 18.714C197.789 18.246 196.706 17.5873 195.787 16.738C194.868 15.8713 194.149 14.8573 193.629 13.696C193.126 12.5347 192.875 11.2693 192.875 9.9C192.875 8.51333 193.126 7.248 193.629 6.104C194.149 4.94267 194.868 3.93733 195.787 3.088C196.706 2.22133 197.789 1.554 199.037 1.086C200.302 0.618 201.672 0.383999 203.145 0.383999C204.636 0.383999 206.005 0.618 207.253 1.086C208.501 1.554 209.584 2.22133 210.503 3.088C211.422 3.93733 212.132 4.94267 212.635 6.104C213.155 7.248 213.415 8.51333 213.415 9.9C213.415 11.2693 213.155 12.5347 212.635 13.696C212.132 14.8573 211.422 15.8713 210.503 16.738C209.584 17.5873 208.501 18.246 207.253 18.714C206.005 19.182 204.636 19.416 203.145 19.416ZM203.145 14.45C203.717 14.45 204.246 14.346 204.731 14.138C205.234 13.93 205.667 13.6353 206.031 13.254C206.412 12.8553 206.707 12.3787 206.915 11.824C207.123 11.252 207.227 10.6107 207.227 9.9C207.227 9.18933 207.123 8.55667 206.915 8.002C206.707 7.43 206.412 6.95333 206.031 6.572C205.667 6.17333 205.234 5.87 204.731 5.662C204.246 5.454 203.717 5.35 203.145 5.35C202.573 5.35 202.036 5.454 201.533 5.662C201.048 5.87 200.614 6.17333 200.233 6.572C199.869 6.95333 199.583 7.43 199.375 8.002C199.167 8.55667 199.063 9.18933 199.063 9.9C199.063 10.6107 199.167 11.252 199.375 11.824C199.583 12.3787 199.869 12.8553 200.233 13.254C200.614 13.6353 201.048 13.93 201.533 14.138C202.036 14.346 202.573 14.45 203.145 14.45Z" fill="#F4C93F"/>
</svg>
